<?xml version="1.0" encoding="utf-8"?>
<!-- Generator: Adobe Illustrator 21.1.0, SVG Export Plug-In . SVG Version: 6.00 Build 0)  -->
<svg version="1.1" xmlns="http://www.w3.org/2000/svg" xmlns:xlink="http://www.w3.org/1999/xlink" x="0px" y="0px"
	 viewBox="0 0 48 48" style="enable-background:new 0 0 48 48;" xml:space="preserve">
<style type="text/css">
	.st0{display:none;}
	.st1{display:inline;}
	.st2{fill:#5CB547;}
	.st3{fill:#FFFFFF;}
</style>
<g id="Layer_1" class="st0">
	<g class="st1">
		<circle class="st2" cx="18.3" cy="24.6" r="5"/>
		<path class="st2" d="M18.3,30.2c-3.1,0-5.6-2.5-5.6-5.6c0-3.1,2.5-5.6,5.6-5.6s5.6,2.5,5.6,5.6C23.9,27.6,21.4,30.2,18.3,30.2z
			 M18.3,20.1c-2.5,0-4.4,2-4.4,4.4c0,2.5,2,4.4,4.4,4.4s4.4-2,4.4-4.4C22.8,22.1,20.8,20.1,18.3,20.1z"/>
	</g>
	<g class="st1">
		<circle class="st2" cx="32.8" cy="13.1" r="5"/>
		<path class="st2" d="M32.8,18.7c-3.1,0-5.6-2.5-5.6-5.6s2.5-5.6,5.6-5.6c3.1,0,5.6,2.5,5.6,5.6S35.8,18.7,32.8,18.7z M32.8,8.6
			c-2.5,0-4.4,2-4.4,4.4s2,4.4,4.4,4.4c2.5,0,4.4-2,4.4-4.4S35.2,8.6,32.8,8.6z"/>
	</g>
	<g class="st1">
		<path class="st3" d="M40.4,40.7c-1.7,6.6-14,8.7-18.2-0.9l-0.1-0.2c0,0-0.1-0.3-0.2-0.6l-4.3-12.9c-0.8-3.1,2.6-5.6,4.6,0l0-0.1
			l2.9,4.9l0,0l5.4-17.5l-0.2,0.5c1-3.4,5.2-1.9,4.2,1.4L31.2,26l0,0c0.9-3,5.5-3,3.5,2.3l0,0c0.7-3.1,5.7-2.9,3.9,2.6l0,0
			c0.7-3.1,5.8-3,3.9,2.5L40.4,40.7"/>
		<path d="M31.8,47c-3.6,0-8-1.8-10.1-6.9l-0.1-0.2c0,0,0,0,0,0c0-0.1-0.1-0.3-0.2-0.6l-4.3-12.9c-0.5-1.8,0.3-3.6,1.6-4
			c0.6-0.2,2.6-0.4,4,3.5l2.2,3.7L29.8,14c0-0.1,0-0.1,0-0.2c0.4-1.2,1.2-2,2.2-2.3c0.9-0.2,1.9,0.1,2.5,0.8c0.8,0.8,1,2,0.6,3.2
			l-2.5,8.1c0.2-0.1,0.4-0.1,0.6-0.2c0.8-0.2,1.6,0.1,2.1,0.7c0.3,0.3,0.6,0.9,0.6,1.9c0.2-0.1,0.4-0.2,0.6-0.2
			c0.9-0.2,1.8,0,2.4,0.7c0.3,0.4,0.8,1,0.8,2.2c0.2-0.1,0.5-0.2,0.7-0.3c0.9-0.2,1.8,0,2.4,0.6c0.5,0.5,1.2,1.9,0.3,4.6l-2.2,7.3
			c-0.9,3.3-4.2,5.7-8.3,6C32.3,47,32.1,47,31.8,47z M19.3,23.4c-0.1,0-0.2,0-0.2,0c-0.7,0.2-1.2,1.3-0.9,2.6l4.3,12.9c0,0,0,0,0,0
			c0.1,0.2,0.1,0.5,0.2,0.5l0.1,0.1c1.8,4.2,5.4,6.5,9.8,6.2c3.6-0.3,6.5-2.4,7.3-5.2c0,0,0,0,0,0l2.2-7.3c0.5-1.6,0.5-2.8-0.1-3.5
			c-0.3-0.3-0.8-0.5-1.3-0.3c-0.5,0.1-1,0.5-1.3,1.2c0,0.1-0.1,0.3-0.1,0.4c-0.1,0.3-0.4,0.5-0.7,0.4c-0.3-0.1-0.5-0.4-0.4-0.7
			c0-0.1,0.1-0.3,0.1-0.4c0.4-1.4,0.3-2.5-0.2-3.1c-0.3-0.3-0.8-0.5-1.3-0.3c-0.4,0.1-0.9,0.4-1.2,1c-0.1,0.2-0.1,0.4-0.2,0.6
			c-0.1,0.3-0.4,0.4-0.7,0.3c-0.3-0.1-0.5-0.4-0.4-0.7c0.1-0.2,0.1-0.4,0.2-0.7c0.5-1.7,0.2-2.4,0-2.7c-0.3-0.4-0.7-0.3-1-0.3
			c-0.5,0.1-1.3,0.6-1.6,1.6l0,0c0,0,0,0,0,0l0,0c-0.1,0.3-0.4,0.5-0.7,0.4c-0.3-0.1-0.5-0.4-0.4-0.7c0,0,0,0,0,0L34,15.2
			c0.3-0.8,0.1-1.6-0.3-2.1c-0.4-0.4-0.9-0.6-1.4-0.5c-0.5,0.1-0.9,0.5-1.1,1l-5.4,17.5c-0.1,0.2-0.3,0.4-0.5,0.4
			c-0.2,0-0.4-0.1-0.6-0.3l-2.8-4.7c-0.1-0.1-0.1-0.1-0.2-0.2C20.9,24.2,20,23.4,19.3,23.4z"/>
	</g>
	<g class="st1">
		<g>
			<polyline class="st2" points="23.4,7.5 25.5,2.3 20.5,2.8 			"/>
			<polygon class="st2" points="23.4,7.5 23.3,7.5 25.4,2.3 20.5,2.8 20.5,2.7 25.5,2.2 			"/>
		</g>
		<polyline class="st2" points="6.6,13.6 4.5,18.8 9.5,18.3 		"/>
		<g>
			<line class="st2" x1="7.4" y1="16.4" x2="23.1" y2="4"/>
			<rect x="5.2" y="9.8" transform="matrix(0.7861 -0.6181 0.6181 0.7861 -3.051 11.6208)" class="st2" width="20" height="0.8"/>
		</g>
	</g>
</g>
<g id="Layer_2" class="st0">
	<g class="st1">
		<circle class="st2" cx="9.7" cy="28.6" r="5.5"/>
		<path class="st2" d="M9.7,34.7c-3.4,0-6.1-2.7-6.1-6.1c0-3.4,2.7-6.1,6.1-6.1s6.1,2.7,6.1,6.1C15.9,32,13.1,34.7,9.7,34.7z
			 M9.7,23.8c-2.7,0-4.8,2.2-4.8,4.8c0,2.7,2.2,4.8,4.8,4.8s4.8-2.2,4.8-4.8C14.6,26,12.4,23.8,9.7,23.8z"/>
	</g>
	<g class="st1">
		<circle class="st2" cx="9.2" cy="15.2" r="5.5"/>
		<path class="st2" d="M9.2,21.3c-3.4,0-6.1-2.7-6.1-6.1c0-3.4,2.7-6.1,6.1-6.1c3.4,0,6.1,2.7,6.1,6.1C15.3,18.5,12.6,21.3,9.2,21.3
			z M9.2,10.3c-2.7,0-4.8,2.2-4.8,4.8S6.6,20,9.2,20s4.8-2.2,4.8-4.8S11.9,10.3,9.2,10.3z"/>
	</g>
	<g class="st1">
		<path class="st3" d="M43.8,26c2.9,6.9-7.5,17.5-17.4,11.8l-0.2-0.1c0,0-0.3-0.2-0.6-0.4l-13.8-7.4c-2.8-2.2-1.4-6.6,4-3l-0.1-0.1
			l7.3,1.4l0,0l-8-10.9l-1.4,1.1c-1.7,1.3-5.7-0.1-2.8-3.7l2.8-3.3c0.6-0.4,2.2-1.3,4.6,1.4l7.3,7.8l-0.5-0.8
			c-1.2-3.2,1.9-4.7,4.6-2.2l0,0c-1.4-3.2,1.4-5.3,4.4-2.2l0,0c-1.4-3.2,3.5-5.3,7.9,5.4L43.8,26"/>
		<path d="M32.2,40.1c-2,0-4.1-0.5-6.2-1.7l-0.2-0.1c-0.1,0-0.3-0.2-0.6-0.4l-13.7-7.4c0,0-0.1,0-0.1-0.1c-1.6-1.2-2.1-3.3-1.2-4.5
			c0.4-0.5,1.9-2.1,5.7,0.4l5.6,1.1l-6.7-9.1L14,18.9c-1.2,0.9-3.2,0.8-4.2-0.2c-0.5-0.5-1.4-1.9,0.5-4.3l2.9-3.3
			c0-0.1,0.1-0.1,0.2-0.1c0.7-0.4,2.6-1.5,5.4,1.5l5.5,5.9c0.1-1,0.6-1.7,1.2-2.1c0.8-0.5,2-0.6,3.3,0c0-1.2,0.5-2,1.1-2.5
			c0.7-0.5,2-0.6,3.4,0.2c0.1-0.3,0.2-0.7,0.4-0.9c0.4-0.6,1.2-0.9,2-0.8c1.1,0.1,4,1.2,7,8.4l1.8,5.2c1.4,3.4-0.1,7.8-3.7,11
			C38.6,38.6,35.5,40.1,32.2,40.1z M12.2,29.3l13.7,7.4c0,0,0.1,0,0.1,0.1c0.2,0.2,0.5,0.3,0.5,0.4l0.2,0.1c5.1,3,10.2,1.2,13.2-1.5
			c3.2-2.8,4.5-6.6,3.3-9.5c0,0,0,0,0,0l-1.8-5.1c-2.2-5.3-4.5-7.4-6-7.6c-0.3,0-0.6,0-0.8,0.3c-0.2,0.3-0.2,0.9,0,1.4
			c0.1,0.3,0,0.6-0.2,0.8c-0.3,0.2-0.6,0.1-0.8-0.1c-1.4-1.4-2.5-1.5-3.1-1.1c-0.7,0.4-0.8,1.5-0.2,2.6c0.1,0.3,0,0.6-0.2,0.8
			c-0.2,0.2-0.6,0.1-0.8-0.1c-1.3-1.2-2.5-1.3-3.2-0.9c-0.6,0.4-0.8,1.3-0.4,2.3l0.4,0.7c0.2,0.3,0.1,0.6-0.2,0.8
			c-0.3,0.2-0.6,0.2-0.8-0.1l-7.3-7.8c-2-2.2-3.1-1.7-3.7-1.4l-2.8,3.2c-0.9,1.1-1.1,2.1-0.6,2.6c0.6,0.6,1.8,0.6,2.5,0.1l1.4-1.1
			c0.1-0.1,0.3-0.2,0.5-0.1c0.2,0,0.3,0.1,0.4,0.3l8,10.9c0.2,0.2,0.2,0.5,0,0.7c-0.1,0.2-0.4,0.3-0.7,0.3l-7-1.3
			c-0.2,0-0.3,0-0.5-0.1c-2.4-1.6-3.7-1.5-4.2-0.8C10.8,27.2,11.1,28.5,12.2,29.3z"/>
	</g>
</g>
<g id="Layer_3" class="st0">
	<g class="st1">
		<path class="st3" d="M25.1,33.8c0.3,6.5-10.3,11.9-16.8,4.3l-0.1-0.1c0,0-0.2-0.2-0.3-0.5L2.4,26c-1.6-2.6,1.8-5.8,4.3-0.9
			l-0.2-0.4l2,4.6l0,0V11.8l0,0.5c0-3.4,4.2-3.1,4.2,0.1V23l0,0c0-1.4-0.1-10.7,0-11c0.4-2.1,3.4-1.8,3.7,0.3
			c0.1,0.5,0.1,4.1,0.1,11.9l0,0c-0.2-3.1,4.4-4.3,4.3,1.3l0,0c-0.2-3.1,4.4-4.3,4.3,1.2L25.1,33.8"/>
		<path d="M16,42.3c-2.7,0-5.6-1-8.1-3.9l-0.1-0.1c0,0,0,0,0,0c-0.1-0.1-0.2-0.3-0.4-0.5c0,0,0,0,0,0L1.9,26.3
			c-0.6-1-0.7-2.1-0.1-3.1C2.2,22.4,3,21.9,3.9,22c0.7,0,2.1,0.4,3.4,2.8c0,0.1,0.1,0.2,0.1,0.2l0.6,1.5V12.5c0-0.1,0-0.1,0-0.2
			c0-1.2,0.5-2.2,1.3-2.7c0.8-0.4,1.7-0.4,2.5,0c0.4,0.2,0.7,0.6,1,1c0.4-0.4,1-0.6,1.7-0.6c1,0,2.3,0.7,2.4,2.2
			c0.1,0.6,0.1,5,0.1,9.4c0.1-0.1,0.2-0.1,0.3-0.2c0.8-0.5,1.7-0.5,2.4-0.1c0.4,0.2,1,0.7,1.3,1.8c0.2-0.2,0.4-0.3,0.6-0.5
			c0.8-0.5,1.7-0.5,2.4-0.1c0.6,0.4,1.7,1.4,1.6,4.1l0.1,7.2c0.1,3.2-2.2,6.4-5.9,7.8C18.7,42.1,17.4,42.3,16,42.3z M8.4,37.2
			c0.1,0.2,0.2,0.4,0.3,0.4l0.1,0.1c2.8,3.3,6.8,4.4,10.6,2.9c3.2-1.3,5.3-4,5.2-6.8c0,0,0,0,0,0l-0.1-7.2c0-1.6-0.3-2.7-1-3.1
			c-0.4-0.2-0.8-0.2-1.3,0.1c-0.4,0.2-0.8,0.7-0.8,1.5c0,0.1,0,0.3,0,0.4c0,0.3-0.2,0.5-0.5,0.5c-0.3,0-0.5-0.2-0.6-0.5
			c0-0.1,0-0.3,0-0.4c0-1.4-0.4-2.4-1.1-2.7c-0.4-0.2-0.8-0.2-1.3,0.1c-0.4,0.2-0.8,0.7-0.8,1.5c0,0.1,0,0.2,0,0.3
			c0,0.3-0.2,0.5-0.5,0.6c-0.3,0-0.5-0.2-0.6-0.5c0-0.1,0-0.3,0-0.4c0-9.7-0.1-11.2-0.1-11.4c-0.1-0.8-0.8-1.2-1.4-1.2
			c-0.5,0-1.1,0.2-1.2,0.9c0,0.1,0,0.2,0,0.4V23c0,0.3-0.2,0.6-0.6,0.6c0,0,0,0,0,0c-0.3,0-0.6-0.2-0.6-0.5c0-0.3,0-1.1,0-2.1
			c0-6.6,0-8.4,0-8.9c-0.1-0.6-0.4-1.1-0.9-1.4c-0.5-0.3-1-0.3-1.4,0c-0.4,0.2-0.7,0.7-0.7,1.3v17.4c0,0.3-0.2,0.5-0.4,0.5
			c-0.3,0.1-0.5-0.1-0.6-0.3l-2-4.5c-0.7-1.2-1.5-1.8-2.2-1.8c-0.5,0-0.8,0.2-1.1,0.7c-0.3,0.5-0.4,1.2,0.1,2c0,0,0,0,0,0.1
			L8.4,37.2z"/>
	</g>
	<g class="st1">
		<g>
			<polyline class="st2" points="40.8,20.4 45.5,17.9 41.5,15.2 			"/>
			<polygon class="st2" points="40.8,20.5 40.7,20.4 45.4,17.9 41.5,15.3 41.5,15.2 45.6,17.9 			"/>
		</g>
		<polyline class="st2" points="24.8,14.8 20.1,17.4 24.1,20 		"/>
		<g>
			<line class="st2" x1="23.7" y1="17.4" x2="42.7" y2="17.7"/>
			
				<rect x="32.8" y="8" transform="matrix(2.035008e-02 -0.9998 0.9998 2.035008e-02 14.9537 50.3683)" class="st2" width="0.7" height="19"/>
		</g>
	</g>
	<g class="st1">
		<g>
			<polyline class="st2" points="42.1,14.3 46.8,11.7 42.8,9 			"/>
			<polygon class="st2" points="42.1,14.3 42,14.2 46.7,11.7 42.8,9.1 42.8,9 46.9,11.7 			"/>
		</g>
		<polyline class="st2" points="26.1,8.6 21.4,11.2 25.4,13.8 		"/>
		<g>
			<line class="st2" x1="25" y1="11.2" x2="44" y2="11.6"/>
			
				<rect x="34.1" y="1.9" transform="matrix(2.034988e-02 -0.9998 0.9998 2.034988e-02 22.4186 45.6324)" class="st2" width="0.7" height="19"/>
		</g>
	</g>
</g>
<g id="Layer_4">
	<g>
		<g>
			<path class="st3" d="M28.3,33.9c0.3,6.6-10.4,12-16.9,4.3L11.3,38c0,0-0.2-0.2-0.3-0.5L3.4,27c-1.6-2.6,0.8-5.9,4.2-1.3l0-0.1
				l4,3.6l0,0l0-17.5l0,0.5c0-3.4,4.2-3.2,4.2,0.1l0,10.7l0,0c0-3,4.2-4.3,3.9,1.1l0,0c-0.2-3.1,4.4-4.3,4.3,1.3l0,0
				c-0.2-3.1,4.4-4.4,4.3,1.2L28.3,33.9"/>
			<path d="M19.1,42.5c-2.7,0-5.7-1-8.1-3.9l-0.1-0.1c0,0,0,0,0,0c-0.1-0.1-0.2-0.3-0.3-0.5L2.9,27.3c-1-1.5-0.8-3.3,0.4-4.1
				c0.5-0.3,2.2-1.1,4.6,2.1L11,28l0-15.6c0-0.1,0-0.1,0-0.2c0-1.2,0.5-2.2,1.3-2.7c0.8-0.4,1.7-0.4,2.5,0c0.9,0.5,1.4,1.5,1.4,2.8
				l0,8.1c0.1-0.1,0.3-0.2,0.5-0.3c0.7-0.4,1.5-0.4,2.1,0c0.4,0.3,0.8,0.7,1.1,1.6c0.1-0.1,0.3-0.3,0.4-0.4c0.8-0.5,1.7-0.5,2.4-0.1
				c0.4,0.2,1,0.7,1.3,1.8c0.2-0.2,0.4-0.3,0.6-0.5c0.8-0.5,1.7-0.5,2.4-0.1c0.6,0.4,1.7,1.4,1.6,4.1l0.1,7.3
				c0.1,3.3-2.2,6.4-5.9,7.9C21.9,42.2,20.5,42.5,19.1,42.5z M4.4,24c-0.2,0-0.4,0.1-0.5,0.1c-0.6,0.4-0.7,1.5-0.1,2.6l7.6,10.5
				c0,0,0,0,0,0c0.1,0.2,0.3,0.4,0.3,0.4l0.1,0.1c2.8,3.3,6.8,4.4,10.7,2.9c3.2-1.3,5.3-4,5.2-6.8c0,0,0,0,0,0l-0.1-7.3
				c0-1.6-0.4-2.7-1.1-3.1c-0.4-0.2-0.9-0.2-1.3,0.1c-0.4,0.2-0.8,0.8-0.9,1.5c0,0.1,0,0.3,0,0.4c0,0.3-0.2,0.5-0.5,0.5
				c-0.3,0-0.5-0.2-0.6-0.5c0-0.1,0-0.3,0-0.4c0-1.4-0.4-2.4-1.1-2.8C21.9,22,21.4,22,21,22.3c-0.4,0.2-0.7,0.7-0.8,1.3
				c0,0.2,0,0.4,0,0.6c0,0.3-0.3,0.5-0.6,0.5c0,0,0,0,0,0c-0.3,0-0.5-0.2-0.6-0.5c0-0.2,0-0.4,0-0.7c0-1.7-0.6-2.3-0.8-2.4
				c-0.4-0.2-0.8-0.1-1,0c-0.5,0.3-1,0.9-1,1.9v0c0,0.3-0.2,0.6-0.6,0.6c0,0,0,0,0,0c-0.3,0-0.6-0.2-0.6-0.6c0,0,0,0,0,0v0
				c0,0,0,0,0,0l0-10.7c0-0.8-0.3-1.5-0.9-1.8c-0.5-0.3-1-0.3-1.4,0c-0.4,0.2-0.7,0.7-0.8,1.3l0,17.5c0,0.2-0.1,0.4-0.3,0.5
				c-0.2,0.1-0.4,0.1-0.6-0.1l-3.9-3.5c-0.1,0-0.2-0.1-0.2-0.2C6,24.5,5.1,24,4.4,24z"/>
		</g>
		<g>
			<g>
				<polyline class="st2" points="40.1,17.9 44.9,15.3 40.9,12.7 				"/>
				<polygon class="st2" points="40.2,18 40.1,17.9 44.8,15.3 40.9,12.7 40.9,12.6 45,15.3 				"/>
			</g>
			<polyline class="st2" points="24.1,12.2 19.3,14.8 23.3,17.5 			"/>
			<g>
				<line class="st2" x1="22.9" y1="14.8" x2="42.1" y2="15.2"/>
				
					<rect x="32.2" y="5.4" transform="matrix(2.034988e-02 -0.9998 0.9998 2.034988e-02 16.852 47.2178)" class="st2" width="0.7" height="19.2"/>
			</g>
		</g>
	</g>
</g>
</svg>
