<svg id="Logos" xmlns="http://www.w3.org/2000/svg" viewBox="0 0 285.1 62.07"><defs><style>.cls-1{fill:#5bb73b;}.cls-2{fill:#3d4647;}</style></defs><title>logo</title><g id="_Group_" data-name="&lt;Group&gt;"><g id="_Group_2" data-name="&lt;Group&gt;"><polygon id="_Path_" data-name="&lt;Path&gt;" class="cls-1" points="53.75 44.79 53.74 17.46 30.89 31.04 53.75 44.79"/><polygon id="_Path_2" data-name="&lt;Path&gt;" class="cls-2" points="26.88 28.63 51.32 14.11 26.87 0 2.59 14.03 26.88 28.63"/><polygon id="_Path_3" data-name="&lt;Path&gt;" class="cls-1" points="0 17.28 0 44.61 22.86 31.02 0 17.28"/><polygon id="_Path_4" data-name="&lt;Path&gt;" class="cls-2" points="26.87 33.43 2.43 47.96 26.88 62.07 51.16 48.04 26.87 33.43"/></g><g id="_Group_3" data-name="&lt;Group&gt;"><path id="_Compound_Path_" data-name="&lt;Compound Path&gt;" class="cls-2" d="M88,48.95V28H83.05V24.77H88V16.11h3.63v8.66h5.56V28H91.61v21H88Z"/><path id="_Compound_Path_2" data-name="&lt;Compound Path&gt;" class="cls-2" d="M103.56,15.1V28.54a12.15,12.15,0,0,1,3.19-2.95,7.8,7.8,0,0,1,4.3-1.21,11.48,11.48,0,0,1,4.16.68,8.45,8.45,0,0,1,3,2,10.44,10.44,0,0,1,3,7.79V48.95h-3.63V35a7.4,7.4,0,0,0-1.89-5.32,6.44,6.44,0,0,0-4.88-2,7.22,7.22,0,0,0-5.17,2A7.12,7.12,0,0,0,103.56,35V48.95H99.93V15.1h3.63Z"/><path id="_Compound_Path_3" data-name="&lt;Compound Path&gt;" class="cls-2" d="M129.87,16v4.74h-3.92V16h3.92Zm-3.77,8.8h3.63V48.95h-3.63V24.77Z"/><path id="_Compound_Path_4" data-name="&lt;Compound Path&gt;" class="cls-2" d="M138.43,24.77v3.77a12.15,12.15,0,0,1,3.19-2.95,7.8,7.8,0,0,1,4.3-1.21,11.48,11.48,0,0,1,4.16.68,8.45,8.45,0,0,1,3,2,10.44,10.44,0,0,1,3,7.79V48.95H152.5V35a7.4,7.4,0,0,0-1.89-5.32,6.44,6.44,0,0,0-4.88-2,7.22,7.22,0,0,0-5.17,2A7.12,7.12,0,0,0,138.43,35V48.95H134.8V24.77h3.63Z"/><path id="_Compound_Path_5" data-name="&lt;Compound Path&gt;" class="cls-2" d="M179.82,28.64V24.77h3.63V48.22q0,5.22-3,8a11.37,11.37,0,0,1-8,2.73q-5,0-7.86-1.93a9.59,9.59,0,0,1-3.84-5.13h4q1.55,3.77,7.06,3.77,4.21,0,6.09-1.93A7.86,7.86,0,0,0,179.82,48V44.65a9.82,9.82,0,0,1-8.66,4.3,11,11,0,0,1-8.51-3.58,12.39,12.39,0,0,1-3.19-8.7,12.39,12.39,0,0,1,3.19-8.7,11.35,11.35,0,0,1,8.78-3.58A9.53,9.53,0,0,1,179.82,28.64Zm-8.17,17a8.47,8.47,0,0,0,3.53-.7A8.12,8.12,0,0,0,177.84,43,9.4,9.4,0,0,0,180,36.67a9.41,9.41,0,0,0-2.18-6.38,8,8,0,0,0-6.19-2.61,8.08,8.08,0,0,0-6.29,2.61,9.27,9.27,0,0,0-2.27,6.38A9.27,9.27,0,0,0,165.36,43,8.08,8.08,0,0,0,171.65,45.66Z"/><path id="_Compound_Path_6" data-name="&lt;Compound Path&gt;" class="cls-2" d="M203.61,29.65l-6,19.3h-4.16l-7.59-24.18h3.87l5.8,19.68,6.14-19.68h4l6.14,19.68,5.8-19.68h3.87l-7.59,24.18h-4.16Z"/><path id="_Compound_Path_7" data-name="&lt;Compound Path&gt;" class="cls-2" d="M234.08,24.38a11.49,11.49,0,0,1,8.8,3.63,12.59,12.59,0,0,1,3.19,8.85,12.59,12.59,0,0,1-3.19,8.85,12.49,12.49,0,0,1-17.6,0,12.59,12.59,0,0,1-3.19-8.85A12.59,12.59,0,0,1,225.28,28,11.49,11.49,0,0,1,234.08,24.38Zm0,21.67a7.65,7.65,0,0,0,6.19-2.71,9.66,9.66,0,0,0,2.18-6.48,9.66,9.66,0,0,0-2.18-6.48,8.43,8.43,0,0,0-12.38,0,9.67,9.67,0,0,0-2.18,6.48,9.66,9.66,0,0,0,2.18,6.48A7.65,7.65,0,0,0,234.08,46Z"/><path id="_Compound_Path_8" data-name="&lt;Compound Path&gt;" class="cls-2" d="M262.42,24.38V28H262a7.75,7.75,0,0,0-6.38,3.14,11.35,11.35,0,0,0-2.32,7.16V48.95h-3.63V24.77h3.63v5.95a9.17,9.17,0,0,1,8.9-6.34h0.24Z"/><path id="_Compound_Path_9" data-name="&lt;Compound Path&gt;" class="cls-2" d="M275.72,36.47l9.38,12.48h-4.64l-6.82-9.87-6.87,9.87h-4.59l9.33-12.48-8.75-11.7h4.64l6.24,9.14,6.19-9.14h4.64Z"/></g></g></svg>