<svg id="Layer_1" data-name="Layer 1" xmlns="http://www.w3.org/2000/svg" viewBox="0 0 137.79 172"><defs><style>.cls-1{fill:none;}.cls-2{fill:#808285;}.cls-3{fill:#5cb647;stroke:#5cb647;stroke-miterlimit:10;stroke-width:4px;}</style></defs><title>Illustration_4congrats</title><rect class="cls-1" width="137.79" height="172"/><path class="cls-2" d="M282.91,357.21,332.73,359s1.46-12.11-3.39-12.86l-3.47-.77c-3.2-.52-5.61-1.17-5.61-3.17v-3.14c0-3.9-5.48-7.05-12.28-7.05s-12.27,3.16-12.27,7.05v3.14c0,2-2.29,2.62-5.5,3.14l-4,.4C281.39,346.49,283.42,354.16,282.91,357.21Zm24.94-20.57a3.69,3.69,0,1,1-3.67,3.69A3.69,3.69,0,0,1,307.85,336.64Z" transform="translate(-237 -311)"/><path class="cls-2" d="M279.59,351.15l65.21-.4c4.23-.6,2.73,9.26,2.81,11,0,0,0,.08,0,.13l-1.81,80.24c-.08,1.55-2.73,3.51-4.23,3.62l-70-1.81c-1.46-.11-3.45-4.87-3.61-6.53a2,2,0,0,1,0-.23l1.21-79.58c-.29-3.28.95-4.44,1.47-5.12a1.92,1.92,0,0,1,1.46-.76l14.51-.51c.12-7.35,0,2.55,0,0v-1.46a1.91,1.91,0,0,0-1.91-1.91H271.72a6.78,6.78,0,0,0-6.72,6.77v86.86a6.88,6.88,0,0,0,6.72,6.88h71.64a6.68,6.68,0,0,0,6.48-6.88V354.59a6.58,6.58,0,0,0-6.48-6.77H277.53" transform="translate(-237 -311)"/><path class="cls-3" d="M302.46,415.64h0a1.83,1.83,0,0,1-1.64-.7l-12.64-13.82a2.32,2.32,0,0,1,3.51-3L302.46,410l26.69-28.33a2.32,2.32,0,0,1,3.28,3.28l-28.1,30A2.66,2.66,0,0,1,302.46,415.64Z" transform="translate(-237 -311)"/></svg>