<svg xmlns="http://www.w3.org/2000/svg" viewBox="0 0 137.8 97">
  <title>Illustration_2publish</title>
  <polygon points="133 42.8 4.3 42.8 3.8 25.1 133 26.5 133 42.8" style="fill: #d1d3d4;stroke: #fff;stroke-miterlimit: 10"/>
  <g style="isolation: isolate">
    <path d="M13.1,36.1v-1a.86.86,0,0,0,.6.3,1.27,1.27,0,0,0,.6.1h.3a.35.35,0,0,0,.2-.1l.1-.1v-.2c0-.1,0-.2-.1-.2s-.1-.1-.2-.2-.2-.1-.3-.2-.2-.1-.4-.2a2.18,2.18,0,0,1-.8-.5,1.14,1.14,0,0,1-.3-.8,1.27,1.27,0,0,1,.1-.6.78.78,0,0,1,.4-.4,1.07,1.07,0,0,1,.6-.2,1.48,1.48,0,0,1,.7-.1h.6c.2,0,.3.1.5.1v.9a.31.31,0,0,0-.2-.1c-.1,0-.2-.1-.3-.1a.37.37,0,0,1-.3-.1h-.6a.35.35,0,0,0-.2.1.1.1,0,0,0-.1.1c0,.1-.1.1-.1.2s0,.1.1.2.1.1.2.2.2.1.3.2.2.1.4.2.3.2.5.2.3.2.4.3a.52.52,0,0,1,.2.4c0,.2.1.3.1.5s0,.5-.1.6a.78.78,0,0,1-.4.4,1.07,1.07,0,0,1-.6.2c-.3,0-.4.1-.7.1a1.7,1.7,0,0,1-.7-.1A.44.44,0,0,1,13.1,36.1Z" style="fill: #04466b"/>
  </g>
  <g style="isolation: isolate">
    <path d="M20.6,36.3H19.5l-.3-1H17.6l-.3,1H16.2l1.6-4.5H19ZM19,34.5,18.5,33c0-.1-.1-.2-.1-.4h0a.6.6,0,0,1-.1.4l-.5,1.5Z" style="fill: #04466b"/>
  </g>
  <g style="isolation: isolate">
    <path d="M24.3,31.9l-1.5,4.5H21.7l-1.5-4.5h1.1l.9,3.1c0,.2.1.3.1.4h0a1.09,1.09,0,0,1,.1-.5l.9-3.1h1Z" style="fill: #04466b"/>
    <path d="M27.5,36.3H24.8V31.8h2.6v.8H25.8v1h1.5v.8H25.8v1h1.7Z" style="fill: #04466b"/>
    <path d="M52.1,34.8v1.5h-1V31.8h1.6c1.1,0,1.7.5,1.7,1.4a1.61,1.61,0,0,1-.5,1.1,1.84,1.84,0,0,1-1.3.4h-.5Zm0-2.2V34h.4c.5,0,.8-.2.8-.7s-.3-.7-.8-.7Z" style="fill: #04466b"/>
    <path d="M58.7,36.3H57.5l-.7-1.1a.31.31,0,0,1-.1-.2c0-.1-.1-.1-.1-.2a.35.35,0,0,0-.2-.1H56v1.7H55V31.9h1.6c1.1,0,1.6.4,1.6,1.2,0,.2,0,.3-.1.4s-.1.2-.2.4l-.3.3c-.1.1-.3.1-.4.2h0c.1,0,.1.1.2.1s.1.1.2.2l.2.2c.1.1.1.1.1.2ZM56,32.6v1.2h.4a.68.68,0,0,0,.7-.7c0-.4-.2-.6-.7-.6H56Z" style="fill: #04466b"/>
    <path d="M61.8,36.3H59.1V31.8h2.6v.8H60.1v1h1.5v.8H60.1v1h1.7Z" style="fill: #04466b"/>
    <path d="M66.2,31.9l-1.5,4.5H63.6l-1.5-4.5h1.1l.9,3.1c0,.2.1.3.1.4h0a1.09,1.09,0,0,1,.1-.5l.9-3.1h1Z" style="fill: #04466b"/>
    <path d="M68.2,31.9v.8h-.4v2.9h.4v.8H66.5v-.8h.4V32.7h-.4v-.8Z" style="fill: #04466b"/>
  </g>
  <g style="isolation: isolate">
    <path d="M72.2,36.3H69.5V31.8h2.6v.8H70.5v1H72v.8H70.5v1h1.7Z" style="fill: #04466b"/>
  </g>
  <g style="isolation: isolate">
    <path d="M79.1,31.9l-1.2,4.5H76.8l-.8-3a4.33,4.33,0,0,1-.1-.5h0a.75.75,0,0,1-.1.5L75,36.3H73.8l-1.2-4.5h1.1l.6,3a1.09,1.09,0,0,0,.1.5h0a.9.9,0,0,1,.1-.5l.8-3h1.1l.7,3a4.33,4.33,0,0,1,.1.5h0a.9.9,0,0,1,.1-.5l.6-3h1.2Z" style="fill: #04466b"/>
    <path d="M98.3,34.8v1.5h-1V31.8h1.6c1.1,0,1.7.5,1.7,1.4a1.61,1.61,0,0,1-.5,1.1,1.84,1.84,0,0,1-1.3.4h-.5Zm0-2.2V34h.4c.5,0,.8-.2.8-.7s-.3-.7-.8-.7Z" style="fill: #04466b"/>
    <path d="M104.8,34.4c0,1.3-.6,2-1.9,2s-1.8-.7-1.8-2V31.8h1v2.6c0,.7.3,1.1.8,1.1s.8-.3.8-1V31.9h1v2.5Z" style="fill: #04466b"/>
    <path d="M105.8,36.3V31.8h1.6a1.61,1.61,0,0,1,1.1.3,1,1,0,0,1,.4.8,1.07,1.07,0,0,1-.2.6,2.09,2.09,0,0,1-.6.4h0a1.23,1.23,0,0,1,.8.4.91.91,0,0,1,.3.7,1.28,1.28,0,0,1-.4,1,2.14,2.14,0,0,1-1.2.4h-1.8Zm1-3.7v1.1h.4c.2,0,.4,0,.5-.2s.2-.2.2-.4-.2-.5-.7-.5Zm0,1.8v1.2h.5a.69.69,0,0,0,.7-.6.52.52,0,0,0-.2-.4.76.76,0,0,0-.5-.2Z" style="fill: #04466b"/>
    <path d="M112.5,36.3h-2.7V31.8h1v3.6h1.6v.9Z" style="fill: #04466b"/>
    <path d="M114.5,31.9v.8h-.4v2.9h.4v.8h-1.7v-.8h.4V32.7h-.4v-.8Z" style="fill: #04466b"/>
    <path d="M114.9,36.1v-1a.86.86,0,0,0,.6.3,1.27,1.27,0,0,0,.6.1h.3a.35.35,0,0,0,.2-.1.1.1,0,0,0,.1-.1v-.2c0-.1,0-.2-.1-.2s-.1-.1-.2-.2-.2-.1-.3-.2-.2-.1-.4-.2a2.18,2.18,0,0,1-.8-.5,1.14,1.14,0,0,1-.3-.8,1.27,1.27,0,0,1,.1-.6.78.78,0,0,1,.4-.4,1.07,1.07,0,0,1,.6-.2,1.48,1.48,0,0,1,.7-.1h.6c.2,0,.3.1.5.1v.9a.31.31,0,0,0-.2-.1c-.1,0-.2-.1-.3-.1a.37.37,0,0,1-.3-.1h-.6a.35.35,0,0,0-.2.1.1.1,0,0,0-.1.1c0,.1-.1.1-.1.2s0,.1.1.2.1.1.2.2.2.1.3.2.2.1.4.2.3.2.5.2.3.2.4.3a.52.52,0,0,1,.2.4c0,.2.1.3.1.5s0,.5-.1.6a.78.78,0,0,1-.4.4,1.07,1.07,0,0,1-.6.2c-.2,0-.4.1-.7.1a1.7,1.7,0,0,1-.7-.1C115.2,36.1,115.1,36.2,114.9,36.1Z" style="fill: #04466b"/>
    <path d="M122.5,36.3h-1V34.5h-1.8v1.8h-1V31.8h1v1.8h1.8V31.8h1Z" style="fill: #04466b"/>
  </g>
  <line x1="44.6" y1="24.4" x2="44.6" y2="43.6" style="fill: none;stroke: #fff;stroke-miterlimit: 10;stroke-width: 3px"/>
  <line x1="85" y1="23" x2="85" y2="44.3" style="fill: none;stroke: #fff;stroke-miterlimit: 10;stroke-width: 3px"/>
  <path d="M129,78.4l-9.8-13.8,9.8-2.2L102.6,39.7l5.5,35L115,67l6.9,15.5Z" style="fill: #fff;stroke: #231f20;stroke-miterlimit: 10;stroke-width: 2px"/>
  <rect width="137.8" height="97" style="fill: none"/>
</svg>
