<?xml version="1.0" encoding="utf-8"?>
<!-- Generator: Adobe Illustrator 20.1.0, SVG Export Plug-In . SVG Version: 6.00 Build 0)  -->
<svg version="1.1" id="Layer_1" xmlns="http://www.w3.org/2000/svg" xmlns:xlink="http://www.w3.org/1999/xlink" x="0px" y="0px"
	 viewBox="0 0 137.8 154" style="enable-background:new 0 0 137.8 154;" xml:space="preserve">
<style type="text/css">
	.st0{fill:none;}
	.st1{fill-rule:evenodd;clip-rule:evenodd;fill:#D1D3D4;}
	.st2{fill-rule:evenodd;clip-rule:evenodd;fill:#808184;}
	.st3{fill-rule:evenodd;clip-rule:evenodd;fill:#1D1C1A;}
	.st4{fill:#6CC04A;}
	.st5{fill:#4F5858;}
</style>
<title>Illustration_3view</title>
<rect class="st0" width="137.8" height="154"/>
<g>
	<path class="st1" d="M94.9,57.4c-8.5-9.3-15.3-17.8-24-27c-4.1-4.3-9.5,2.8-7.1,8.3l27.8,53.2c1.8,3.5,0.8,7.2-2.3,8.8l-29,16.2
		c9.3,6.8,17,8.1,27.3,6.1l19.6,8.8l0,0c6-12.1,17.4-23.6,16.8-37.4L106,88.1c-3.3-8.6-4.1-18.9-8.2-27.1
		C97.1,59.6,96,58.5,94.9,57.4L94.9,57.4z"/>
	<path class="st1" d="M47.1,101.3c3-0.6,5.9,0.8,6.5,3.8c0.6,3-1.3,5.6-4.3,6.2c-3,0.6-5.9-0.9-6.5-3.9
		C42.1,104.5,44.1,102,47.1,101.3L47.1,101.3z"/>
	<path class="st2" d="M48.3,20.8c1.5-0.7,3.3-0.2,4,1.3l37.3,71.2c0.8,1.6,0.3,4.2-1.3,5.1l-28.9,16.2c-1.4,0.8-3.3,0.2-4.1-1.3
		l-1.3-2.5c1.4-1.6,2.1-3.8,1.6-6.1c-0.1-0.4-0.2-0.7-0.3-1l28.5-15.4L53.9,30.1L23.3,43.8l17,32.1c-1.7-1-4-1.6-6.1-1.9L15.7,39.7
		c-0.8-1.5-0.2-3.4,1.3-4.1L48.3,20.8L48.3,20.8z"/>
	<path class="st3" d="M43.4,81.9l2.5,4.6c-1.3-0.1-2.8,0.1-4.2,0.5c0.1-0.1,0.1-0.2,0.2-0.3C42.8,85.2,43.3,83.5,43.4,81.9
		L43.4,81.9z"/>
	<path class="st3" d="M51.6,97.3l2.1,3.9c-1.1-1.1-2.5-1.7-4.1-1.9C50.4,98.8,51.1,98.1,51.6,97.3L51.6,97.3z"/>
	<path class="st1" d="M36.2,90.5c3.2-1.1,10.6-4.1,13-0.4c1,1.6,1.2,3.1,1.1,4.9c-0.4,4.5-8.8,5.4-12,5.4
		C34.4,100.5,32.1,91.9,36.2,90.5L36.2,90.5z"/>
	<path class="st1" d="M29.7,75.1c3.3,0.4,11.3,0.9,11.9,5.4c0.2,1.9-0.2,3.3-1.2,4.9C38,89.3,30,86.4,27.1,85
		C23.7,83.3,25.4,74.6,29.7,75.1L29.7,75.1z"/>
	<path class="st1" d="M21.8,55.5c-2.3,0.1-4.2,0.9-5.1,2.9c-0.8,1.6-0.8,3.2-0.1,4.9c1.7,3.6,7.2,4.4,11.9,4.7L21.8,55.5L21.8,55.5z
		"/>
</g>
<g id="XMLID_13_">
	<polygon id="XMLID_17_" class="st4" points="56.8,67.3 66.3,67.7 61.9,59.3 	"/>
	<polygon id="XMLID_16_" class="st5" points="55.1,67.2 60.6,58.5 50.3,58 44.7,66.8 	"/>
	<polygon id="XMLID_15_" class="st4" points="54.1,68.7 44.6,68.3 49,76.7 	"/>
	<polygon id="XMLID_14_" class="st5" points="55.9,68.8 50.3,77.5 60.7,78 66.3,69.2 	"/>
</g>
</svg>
