<svg xmlns="http://www.w3.org/2000/svg" viewBox="0 0 137.8 89">
  <title>Illustration_1hint</title>
  <path d="M122.8,55.5H14.2a7.7,7.7,0,0,1-7.7-7.7h0V36.3c0-4.2,3.9-6.6,8.1-6.6L123.7,28c4.2,0,6.8,4,6.8,8.3V47.8A7.9,7.9,0,0,1,122.8,55.5Z" style="fill: #1f6296"/>
  <g style="isolation: isolate">
    <path d="M34,39.4H31.2v8H29v-8H26.2V37.6H34Z" style="fill: #fff"/>
    <path d="M41.9,47.4H39.7v-4c0-1-.4-1.5-1.1-1.5a1,1,0,0,0-.9.4,2.1,2.1,0,0,0-.4,1.1v4H35.1V37.1h2.2v4.4h0a2.51,2.51,0,0,1,2.2-1.2c1.6,0,2.4,1,2.4,2.9Z" style="fill: #fff"/>
    <path d="M44.7,39.3a1.22,1.22,0,0,1-.9-.3,1.22,1.22,0,0,1,0-1.6,1.5,1.5,0,0,1,1.8,0,1.22,1.22,0,0,1,0,1.6A1.22,1.22,0,0,1,44.7,39.3Zm1.1,8.1H43.6v-7h2.2Z" style="fill: #fff"/>
    <path d="M47.1,47.3V45.5a5.36,5.36,0,0,0,1.1.5,4.4,4.4,0,0,0,1,.2,2,2,0,0,0,.9-.2.55.55,0,0,0,.3-.5c0-.1-.1-.3-.2-.3s-.2-.2-.4-.2-.3-.1-.5-.2-.4-.1-.5-.2a4.88,4.88,0,0,1-.7-.3,2.18,2.18,0,0,1-.5-.4.85.85,0,0,1-.3-.6,2,2,0,0,1,.2-1.7,2.34,2.34,0,0,1,.7-.7,3,3,0,0,1,1-.4,4.48,4.48,0,0,1,1.1-.1,2.77,2.77,0,0,1,.9.1,2.92,2.92,0,0,1,.9.2v1.7a3.55,3.55,0,0,0-.9-.4,2.77,2.77,0,0,0-.9-.1h-.4c-.1,0-.2.1-.3.1a.22.22,0,0,0-.2.2.5.5,0,0,0,0,.6c.1.1.2.2.3.2a.76.76,0,0,1,.4.2c.2.1.3.1.5.2s.5.2.8.3.4.3.6.4a1.27,1.27,0,0,1,.4.6,2,2,0,0,1,.1.8,2,2,0,0,1-.3,1.1,2.34,2.34,0,0,1-.7.7,3,3,0,0,1-1,.4,4.87,4.87,0,0,1-1.2.1C48.5,47.6,47.8,47.5,47.1,47.3Z" style="fill: #fff"/>
    <path d="M58.7,39.3a1.22,1.22,0,0,1-.9-.3,1.22,1.22,0,0,1,0-1.6,1.5,1.5,0,0,1,1.8,0,1.22,1.22,0,0,1,0,1.6A1.22,1.22,0,0,1,58.7,39.3Zm1.1,8.1H57.6v-7h2.2Z" style="fill: #fff"/>
    <path d="M61.2,47.3V45.5a5.36,5.36,0,0,0,1.1.5,4.4,4.4,0,0,0,1,.2,2,2,0,0,0,.9-.2.55.55,0,0,0,.3-.5c0-.1-.1-.3-.2-.3a.52.52,0,0,0-.4-.2c-.2,0-.3-.1-.5-.2s-.4-.1-.5-.2a4.88,4.88,0,0,1-.7-.3,2.18,2.18,0,0,1-.5-.4.85.85,0,0,1-.3-.6,2,2,0,0,1,.2-1.7,2.34,2.34,0,0,1,.7-.7,3,3,0,0,1,1-.4,4.48,4.48,0,0,1,1.1-.1,2.77,2.77,0,0,1,.9.1c.3.1.6.1.9.2v1.7a3.55,3.55,0,0,0-.9-.4,2.77,2.77,0,0,0-.9-.1H64c-.1,0-.2.1-.3.1a.22.22,0,0,0-.2.2.5.5,0,0,0,0,.6c.1.1.2.2.3.2a.76.76,0,0,1,.4.2c.2.1.3.1.5.2s.5.2.8.3.4.3.6.4a1.27,1.27,0,0,1,.4.6,2.2,2.2,0,0,1,.1.8,2,2,0,0,1-.3,1.1,2.34,2.34,0,0,1-.7.7,3,3,0,0,1-1,.4,4.87,4.87,0,0,1-1.2.1C62.5,47.6,61.8,47.5,61.2,47.3Z" style="fill: #fff"/>
    <path d="M77.5,47.4h-2v-1h0a2.35,2.35,0,0,1-2.1,1.2,2.11,2.11,0,0,1-1.6-.6,2,2,0,0,1-.6-1.5c0-1.4.8-2.1,2.4-2.4l1.9-.3a1.06,1.06,0,0,0-1.2-1.2,4.42,4.42,0,0,0-2.4.7V40.7a3.37,3.37,0,0,1,1.2-.4,7.84,7.84,0,0,1,1.4-.2,2.65,2.65,0,0,1,3,3Zm-2-2.8v-.5l-1.3.2c-.7.1-1.1.4-1.1,1a.86.86,0,0,0,.3.6.84.84,0,0,0,.7.2,1.28,1.28,0,0,0,1-.4A1.5,1.5,0,0,0,75.5,44.6Z" style="fill: #fff"/>
    <path d="M89.9,47.4H87.7v-4c0-1-.4-1.5-1.1-1.5a1,1,0,0,0-.9.4,2.1,2.1,0,0,0-.4,1.1v4H83.1V37.1h2.2v4.4h0a2.51,2.51,0,0,1,2.2-1.2c1.6,0,2.4,1,2.4,2.9Z" style="fill: #fff"/>
    <path d="M92.7,39.3a1.2,1.2,0,0,1-1.3-1.1.91.91,0,0,1,.4-.8,1.5,1.5,0,0,1,1.8,0,1.22,1.22,0,0,1,0,1.6A1.61,1.61,0,0,1,92.7,39.3Zm1,8.1H91.5v-7h2.2Z" style="fill: #fff"/>
    <path d="M102.3,47.4h-2.2V43.5c0-1.1-.4-1.6-1.2-1.6a1,1,0,0,0-.9.4,2.1,2.1,0,0,0-.4,1.1v4H95.4v-7h2.2v1.1h0a2.45,2.45,0,0,1,2.3-1.3c1.6,0,2.3,1,2.3,2.9v4.3Z" style="fill: #fff"/>
    <path d="M108.3,47.4a2.65,2.65,0,0,1-1.4.3,2.09,2.09,0,0,1-2.3-2.4V42h-1.1V40.4h1.1V38.9l2.2-.6v2.1h1.6V42h-1.6v2.8c0,.7.3,1.1.9,1.1a1.85,1.85,0,0,0,.7-.2v1.7Z" style="fill: #fff"/>
    <path d="M110.5,47.6a1.2,1.2,0,0,1-1.3-1.1.91.91,0,0,1,.4-.8,1.31,1.31,0,0,1,2.2.8.91.91,0,0,1-.4.8A1.22,1.22,0,0,1,110.5,47.6Z" style="fill: #fff"/>
  </g>
  <polygon points="69.1 67.6 77.3 51.3 60.8 51.3 69.1 67.6" style="fill: #1f6296"/>
  <rect width="137.8" height="89" style="fill: none"/>
</svg>
